<?xml version="1.0" encoding="UTF-8" standalone="no"?>
<!DOCTYPE svg PUBLIC "-//W3C//DTD SVG 1.1//EN" "http://www.w3.org/Graphics/SVG/1.1/DTD/svg11.dtd">
<svg width="100%" height="100%" viewBox="0 0 415 823" version="1.1" xmlns="http://www.w3.org/2000/svg" xmlns:xlink="http://www.w3.org/1999/xlink" xml:space="preserve" xmlns:serif="http://www.serif.com/" style="fill-rule:evenodd;clip-rule:evenodd;stroke-linejoin:round;stroke-miterlimit:2;">
    <g transform="matrix(1,0,0,1,174.992,-7.70208)">
        <g transform="matrix(-1.56992e-16,-0.977224,0.696409,-1.15793e-16,-174.783,830.525)">
            <path d="M669.1,216C672.6,211 672.5,202.1 668.9,192.2C665.4,182.7 660.2,181.3 657.3,181.3C653.2,181.3 649.8,184 648.4,186.6C642,198 640.2,206.7 642.9,212.5C644.7,216.4 648.6,219 654.4,220.1C656.1,220.4 657.7,220.6 659.2,220.6C663.6,220.6 666.9,219.1 669.1,216ZM659.1,219.6C657.7,219.6 656.2,219.4 654.5,219.1C649,218 645.4,215.6 643.7,212C641.2,206.5 643,198.1 649.2,187C650.5,184.7 653.5,182.3 657.2,182.3C661.6,182.3 665.4,185.9 667.8,192.6C671.3,202.2 671.4,210.8 668.1,215.5C666.3,218.2 663.2,219.6 659.1,219.6Z" style="fill:rgb(1,0,1);fill-opacity:0.16;fill-rule:nonzero;"/>
            <path d="M334.2,464.5C342.3,464.5 350.9,456.5 357.1,443.2C361.4,434 360,428.5 358.1,425.4C355.5,421.4 350.9,419.9 347.5,419.9C346.4,419.9 345.3,420 344.3,420.3C328.7,424.7 319.4,430.8 316.7,438.2C314.9,443.2 316,448.8 320.1,454.9C324.1,461.3 328.9,464.5 334.2,464.5ZM317.5,438.6C320.1,431.5 329.2,425.7 344.5,421.3C345.4,421 346.4,420.9 347.5,420.9C350.7,420.9 354.9,422.2 357.3,425.9C359.1,428.7 360.4,433.9 356.3,442.7C350.3,455.5 341.9,463.4 334.3,463.4C329.4,463.4 324.9,460.3 320.9,454.3C316.9,448.6 315.8,443.3 317.5,438.6Z" style="fill:rgb(1,0,1);fill-opacity:0.16;fill-rule:nonzero;"/>
            <path d="M392.4,287.8C402.5,287.8 412.7,282.6 422.6,272.4C435,259.6 439.5,247.1 436,235.3C431.1,218.7 410,204.7 379.6,197.8C374,196.5 368.7,195.9 364,195.9C348.2,195.9 340.7,202.9 337.2,208.7C331.7,217.9 333,229.3 336.5,235.9C354.9,270.3 373.7,287.8 392.4,287.8ZM338,209.2C341.4,203.6 348.6,196.9 363.9,196.9C368.6,196.9 373.8,197.5 379.3,198.8C409.3,205.6 430.1,219.4 434.9,235.6C438.3,247 433.9,259.2 421.8,271.7C412.1,281.7 402.2,286.8 392.4,286.8C374.1,286.8 355.6,269.5 337.3,235.4C334,229 332.7,218.1 338,209.2Z" style="fill:rgb(1,0,1);fill-opacity:0.16;fill-rule:nonzero;"/>
            <path d="M395,264.8C400.1,264.8 405.2,262.2 410.1,257.2C416.3,250.8 418.5,244.5 416.7,238.5C414.2,230.2 404,223.3 389.2,220C386.5,219.4 383.9,219.1 381.6,219.1C373.6,219.1 369.7,222.7 367.9,225.7C365,230.5 365.7,236.2 367.6,239.8C376.5,256.3 385.7,264.8 395,264.8ZM370.5,227.1C372.5,223.7 376.4,221.9 381.6,221.9C383.7,221.9 386.1,222.2 388.6,222.8C402.1,225.9 411.8,232.2 413.9,239.3C415.4,244.2 413.4,249.5 408,255.1C403.7,259.6 399.3,261.8 395,261.8C386.9,261.8 378.5,253.9 370.2,238.3C368.8,235.5 368.2,230.9 370.5,227.1Z" style="fill:rgb(1,0,1);fill-opacity:0.16;fill-rule:nonzero;"/>
            <path d="M688,201C688,170.8 668.5,141.7 652.3,137.6C649.9,137 648,136.7 646.4,136.7C644.1,136.7 642.4,137.3 641.3,138.6C639.2,141 639.6,144.9 640.2,150C640.6,153.1 641,156.7 640.8,160.4C640.5,168.8 635.9,172.5 630.2,177.2C627,179.8 623.4,182.7 620.3,186.8C615.1,193.8 611.5,205.5 615.3,215.7C617.7,222.3 624.3,231 642,235.1C649.6,236.9 655.9,237.7 661.3,237.7C684.7,237.7 688,220.1 688,201ZM618,214.6C614.6,205.4 617.9,194.9 622.6,188.5C625.4,184.7 628.7,182 631.9,179.4C637.7,174.7 643.3,170.2 643.6,160.4C643.8,156.4 643.3,152.8 643,149.5C642.5,145.4 642.1,141.8 643.4,140.5C643.9,139.9 644.9,139.6 646.3,139.6C647.6,139.6 649.4,139.9 651.5,140.4C666.6,144.2 684.9,172 684.9,200.9C684.9,225.5 678.4,234.7 661,234.7C655.8,234.7 649.8,233.9 642.4,232.2C629.4,229.1 621.1,223.2 618,214.6Z" style="fill:rgb(1,0,1);fill-opacity:0.16;fill-rule:nonzero;"/>
            <path d="M390.2,405.1C396.5,405.1 405,396.3 408.9,388.1C412.3,381.1 412.3,374.9 409,370.9C406.7,368.1 404.2,366.7 401.5,366.7C398.8,366.7 396.1,368.1 393.5,370.8C387.8,376.8 383.6,388.6 384,397.1C384.4,404.1 388,405.1 390.2,405.1ZM395.6,372.8C397,371.3 399.1,369.6 401.4,369.6C403.2,369.6 404.9,370.6 406.6,372.7C410,376.9 407.8,383.3 406.1,386.8C402.3,394.7 394.6,402.1 390.1,402.1C389.4,402.1 387.2,402.1 386.9,396.9C386.6,389.3 390.5,378.2 395.6,372.8Z" style="fill:rgb(1,0,1);fill-opacity:0.16;fill-rule:nonzero;"/>
            <path d="M705.3,254.2C714.4,243.7 717.9,229.2 715.4,212.2C708.5,165.1 686.1,148.1 669.7,135.6C659.6,127.9 651.7,121.9 651.2,111.5C650.1,83.5 640.8,76.5 607.2,65.3C579.5,56.1 576.6,50.1 569.7,35.7C568.3,32.8 566.7,29.6 564.8,25.9C560.8,18.3 556.2,14.2 552,14.2C550.2,14.2 548.5,15 547,16.5C542.4,21.2 540.1,32.6 540.5,48.5C541.1,70.8 553.2,84.8 567.3,101C576.3,111.4 586.4,123.1 594.5,138.4C605.7,159.8 604.2,172.1 602.3,187.6C600.8,200.1 599.1,214.2 603.6,236.3C608.5,259.9 635.9,272.2 660.4,272.2C679.1,272.2 695.4,265.6 705.3,254.2ZM604.6,236.1C600.1,214.2 601.8,200.1 603.3,187.8C605.1,172.7 606.7,159.7 595.4,138C587.3,122.5 577.1,110.8 568.1,100.4C554.2,84.3 542.2,70.5 541.6,48.6C541.2,33 543.4,21.8 547.8,17.3C549.1,16 550.6,15.3 552.1,15.3C555.9,15.3 560.2,19.4 564.1,26.5C566,30.1 567.6,33.4 569,36.3C575.9,50.6 579,57.1 607.1,66.4C640.2,77.4 649.3,84.3 650.4,111.7C650.8,122.5 659,128.7 669.3,136.5C685.5,148.8 707.8,165.7 714.6,212.4C717.1,229.3 713.7,243.1 704.7,253.6C695,264.8 678.9,271.3 660.6,271.3C636.3,271.2 609.3,259.2 604.6,236.1Z" style="fill:rgb(1,0,1);fill-opacity:0.16;fill-rule:nonzero;"/>
            <path d="M313.1,85C314.2,116.8 315.5,152.9 359.4,170.9C372.7,176.4 384.8,180.2 395.5,183.5C431.2,194.7 454.7,202 475.5,254.5C504.7,328.1 540.1,365.4 583.6,368.3C585.8,368.4 587.9,368.5 589.9,368.5C609.1,368.5 623.2,362.1 629.2,350.5C636.3,336.6 630.8,317.4 613.5,296.6C588.7,266.6 586.4,245.2 583.5,218.1C582.3,206.8 581,195.1 578.1,181.4C572.2,154.1 557.8,135.5 543.9,117.5C533.6,104.3 524,91.8 518,76.5C506.8,47.6 509.7,12.6 511.3,0L508.3,0C506.7,13.2 503.9,48.3 515.2,77.6C521.3,93.3 531.1,106 541.5,119.4C555.2,137.2 569.4,155.5 575.2,182.1C578.1,195.6 579.4,207.2 580.6,218.4C583.4,244.9 585.9,267.8 611.3,298.5C627.7,318.4 633.2,336.4 626.6,349.1C620.6,360.8 605,366.7 583.9,365.2C541.7,362.3 507.2,325.7 478.4,253.2C457.1,199.4 433,191.9 396.5,180.5C385.9,177.2 373.8,173.4 360.6,168C318.5,150.7 317.3,115.7 316.2,84.7C315.8,74.4 315.5,64.7 313.7,56.1C308.6,31.1 295.4,9.7 288.4,-0.3L284.7,-0.3C291.1,8.5 305.4,30.6 310.8,56.7C312.4,65.3 312.8,74.9 313.1,85Z" style="fill:rgb(1,0,1);fill-opacity:0.16;fill-rule:nonzero;"/>
            <path d="M346.9,73.9C349.8,102.6 352.9,132.2 388.2,152.7C404.7,162.3 419.2,167.6 432,172.2C453.7,180.1 470.9,186.4 486.7,208.5C491.1,214.6 495.1,220.5 499,226.3C515.2,250.1 527.5,268.3 543.1,268.3C545.8,268.3 548.5,267.8 551.4,266.6C554.9,265.2 557.3,262 558.7,257.1C565.8,230.7 539.3,160.5 521.1,137.8C520,136.4 518.8,134.9 517.5,133.4C496.5,107.5 461.7,64.6 471.5,-0.1L470.5,-0.1C460.7,64.9 495.6,108 516.7,134C517.9,135.5 519.1,137 520.3,138.4C538.4,161 564.7,230.6 557.7,256.8C556.5,261.4 554.2,264.4 551,265.6C532,273 518.5,253.1 499.8,225.6C495.9,219.9 491.9,213.9 487.5,207.8C471.5,185.4 454.2,179.1 432.4,171.2C419.6,166.5 405.1,161.3 388.7,151.7C353.8,131.4 350.8,102 347.9,73.6C347.2,66.6 346.4,59.4 345.2,52.4C340.9,27.2 331.3,8.5 326.2,-0.1L325,-0.1C330,8.2 339.8,27 344.2,52.6C345.4,59.7 346.2,66.9 346.9,73.9Z" style="fill:rgb(1,0,1);fill-opacity:0.16;fill-rule:nonzero;"/>
            <path d="M449.7,143L451.3,143.6C460.1,146.9 467.5,148.6 473.2,148.6C478.2,148.6 481.8,147.3 483.7,144.6C487.5,139.2 483.7,129.2 473.2,117.3C453.1,94.3 434.8,48.3 440.6,0L439.6,0C433.8,48.5 452.2,94.9 472.5,118.1C482.4,129.5 486.3,139.2 482.9,144.1C479.2,149.4 467.9,148.9 451.7,142.7L450.1,142.1C415.7,129 390.9,119.6 384.9,71.9C380.4,35.6 370.1,10.4 365.2,0L364,0C368.8,10 379.3,35.2 383.8,72C389.9,120.3 416.3,130.3 449.7,143Z" style="fill:rgb(1,0,1);fill-opacity:0.16;fill-rule:nonzero;"/>
            <path d="M511,217.3C518.6,230.7 525.8,243.3 534.7,243.3C535.2,243.3 535.6,243.3 536.1,243.2C537.9,242.9 540.1,241.7 540.8,237.3C543.2,220.5 521.5,170.4 506,163.1C503.3,161.8 500.7,161.2 498.4,161.2C494.2,161.2 491,163.3 489.2,167.1C486.2,173.6 487.8,185.4 498.1,197.4C502.6,202.6 506.9,210.1 511,217.3ZM492,168.3C493.2,165.6 495.5,164.2 498.4,164.2C500.3,164.2 502.4,164.8 504.7,165.9C518.7,172.5 540,221.9 537.8,236.9C537.3,240.1 536.1,240.2 535.6,240.3C535.3,240.3 535,240.4 534.6,240.4C527.4,240.4 520.4,227.9 513.5,215.9C509.3,208.5 505,200.9 500.3,195.5C491.1,184.5 489.5,173.7 492,168.3Z" style="fill:rgb(1,0,1);fill-opacity:0.16;fill-rule:nonzero;"/>
            <path d="M294.6,359.1L295.6,359.1C308.3,358.5 338.5,328.9 341.6,316.9C342.3,313.9 341.3,312.6 340.3,312C339.2,311.4 338,311 336.7,311C330.9,311 323.4,316.8 315.5,323C310.4,327 305.1,331.1 300.3,333.6C289,339.4 284.3,348.2 285.6,353.6C286.4,357.1 289.7,359.1 294.6,359.1ZM300.7,334.5C305.6,332 310.9,327.9 316,323.8C323.8,317.7 331.1,312 336.6,312C337.8,312 338.8,312.3 339.7,312.8C340.7,313.4 341,314.7 340.5,316.6C337.5,328.5 307.9,357.5 295.4,358.1C290.4,358.3 287.3,356.6 286.5,353.3C285.3,348.3 289.9,340 300.7,334.5Z" style="fill:rgb(1,0,1);fill-opacity:0.16;fill-rule:nonzero;"/>
            <path d="M592.5,350.2C595.5,350.9 596.8,349.9 597.4,348.9C598,347.8 598.4,346.6 598.4,345.3C598.4,339.5 592.6,332 586.4,324.1C582.4,319 578.3,313.7 575.8,308.9C570,297.6 561.2,292.9 555.8,294.2C552.3,295.1 550.2,298.3 550.2,303.2L550.2,304.2C550.9,316.8 580.4,347.1 592.5,350.2ZM556.1,295.2C561.1,294 569.4,298.6 574.9,309.4C577.4,314.3 581.5,319.6 585.6,324.7C591.7,332.5 597.4,339.8 597.4,345.3C597.4,346.5 597.1,347.5 596.6,348.4C596,349.4 594.7,349.7 592.8,349.2C580.9,346.2 551.9,316.6 551.3,304.1C551,299.2 552.8,296 556.1,295.2Z" style="fill:rgb(1,0,1);fill-opacity:0.16;fill-rule:nonzero;"/>
            <path d="M626.7,131.3C630.2,130.4 632.3,127.2 632.3,122.3L632.3,121.3C631.7,108.6 602.1,78.4 590.1,75.3C587.1,74.6 585.8,75.6 585.2,76.6C584.6,77.7 584.2,78.9 584.2,80.2C584.2,86 590,93.5 596.2,101.4C600.2,106.5 604.3,111.8 606.8,116.6C612.5,127.8 621.3,132.5 626.7,131.3ZM607.6,116.1C605.1,111.2 601,105.9 596.9,100.8C590.8,93 585.1,85.7 585.1,80.2C585.1,79 585.4,78 585.9,77.1C586.5,76.1 587.8,75.8 589.7,76.3C601.6,79.3 630.6,108.9 631.2,121.4C631.4,126.4 629.7,129.5 626.4,130.3C621.4,131.5 613.1,126.9 607.6,116.1Z" style="fill:rgb(1,0,1);fill-opacity:0.16;fill-rule:nonzero;"/>
            <path d="M205.1,509.9C202.2,484 199.4,459.5 207,451.9C209,449.9 211.7,449.2 215.3,449.7C234.4,452.2 251.9,473.5 268.9,494.1C285.5,514.3 302.7,535.2 322,539.2C354.4,545.9 366.4,528.7 395.5,487.3C403.1,476.5 411.7,464.2 422.1,450.2C460.9,398.2 494.6,407 533.7,417.3C545.3,420.4 557.3,423.5 570.2,425.4C604.9,430.4 633.4,423.8 648.4,407.5C659.7,395.1 663,377.5 658.1,356.4C647.4,311.3 658.6,308.4 683.2,302C686.6,301.1 690.2,300.2 694,299.1C711.7,293.9 726.5,281.2 735.7,263.2C746.6,241.8 749.5,213.3 743.9,180.8C731.9,110.9 685.9,79.9 631.5,49.3C595.1,28.8 586.3,9 584.2,0L581.1,0C583,9.4 591.6,30.3 630,51.9C683.7,82.1 729.1,112.7 740.9,181.3C746.4,213.2 743.7,241 733,261.8C724.2,279 710,291.3 693.1,296.2C689.3,297.3 685.8,298.2 682.4,299.1C657.5,305.6 643.8,309.1 655.2,357C659.9,377 656.8,393.8 646.3,405.3C632.1,420.9 604.5,427.1 570.8,422.3C558.1,420.5 546.2,417.3 534.6,414.3C494.5,403.8 459.8,394.6 419.8,448.3C409.3,462.4 400.7,474.7 393.1,485.5C364.1,527 353.2,542.5 322.7,536.2C304.4,532.5 287.6,512 271.3,492.1C254,471.1 236.1,449.3 215.8,446.6C211.3,446 207.7,447 205,449.7C196.3,458.2 199,482.3 202.2,510.1C205.8,542 209.9,577.9 196.9,595.1L200.6,595.1C212.7,576.5 208.7,541.4 205.1,509.9Z" style="fill:rgb(1,0,1);fill-opacity:0.16;fill-rule:nonzero;"/>
            <path d="M36.4,216.3C47.9,233.3 62.1,254.5 85.4,254.5C100.1,254.5 111,250.4 121.6,246.5C136.1,241.1 148.7,236.4 168.3,243.3C180.6,247.7 192.4,256 204.9,264.8C223.4,277.9 242.5,291.4 264,291.3C267.7,291.3 271.5,290.9 275.4,290C294,285.8 306.7,276.5 312.1,263.2C318.9,246.6 314.1,224.8 298.2,200.1C277.3,167.5 279.7,139.3 282.4,109.3C283.4,97.3 284.5,84.8 284.2,71.5C283.4,36.6 267.6,11.1 259.3,0L255.5,0C263,9.5 280.4,35.4 281.2,71.6C281.5,84.8 280.4,97.1 279.4,109.1C276.7,139.6 274.2,168.4 295.7,201.8C311,225.6 315.7,246.5 309.4,262.2C304.4,274.5 292.4,283.2 274.8,287.2C249.8,292.9 227.9,277.4 206.7,262.4C194.6,253.9 182.1,245 169.4,240.5C148.7,233.2 135.1,238.3 120.6,243.7C110.3,247.6 99.7,251.5 85.5,251.5C63.8,251.5 50.1,231.1 39,214.6C32.7,205.2 27.2,197.1 21.1,193.7C12.4,188.8 5.1,186.8 0.1,186.1L0.1,189.1C4.8,189.9 11.6,191.7 19.6,196.3C24.9,199.3 30.2,207.2 36.4,216.3Z" style="fill:rgb(1,0,1);fill-opacity:0.16;fill-rule:nonzero;"/>
            <path d="M61.3,445.6C81.4,440.8 94.2,426.7 106.5,413.1C118.2,400.2 129.2,388 145.7,384.6C158.1,382.1 174.9,383.6 194.4,385.4C227.7,388.5 269.1,392.3 303.7,375.3C326.6,364.1 340,349.2 347.1,338.7C356,325.7 360.2,312 358.4,302.1C357,294 351.8,289.1 343.8,288.3C330.2,286.9 319.8,296 308.8,305.6C296.7,316.1 284.2,326.9 266.6,324.9C249.9,323 231.6,314.1 213.9,305.4C195.3,296.3 176.1,286.9 158.7,285.8C147.3,285 134.6,288.4 121.2,291.9C94.8,298.8 67.4,305.9 49,281.6C28.9,255.1 10,247.9 0,246L0,249.1C9.6,251.2 27.6,258.4 46.5,283.3C66.2,309.3 95.8,301.5 121.9,294.7C135.1,291.2 147.6,288 158.5,288.7C175.3,289.8 194.3,299.1 212.6,308C230.5,316.8 249.1,325.8 266.3,327.7C285.3,329.8 298.9,318 310.8,307.7C321.3,298.6 331.3,289.9 343.6,291.2C351.9,292.1 354.7,297.8 355.5,302.6C358.5,319.5 341.7,353.3 302.4,372.6C268.5,389.2 227.6,385.4 194.7,382.4C175,380.6 157.9,379 145.1,381.6C127.7,385.2 116.3,397.8 104.3,411.1C92.3,424.4 79.9,438.1 60.6,442.7C33.5,449.1 10.8,446.4 0,444.3L0,447.3C5.9,448.4 15,449.6 26.2,449.6C36.4,449.7 48.4,448.7 61.3,445.6Z" style="fill:rgb(1,0,1);fill-opacity:0.16;fill-rule:nonzero;"/>
            <path d="M160.9,545.3C159.2,528.9 157.3,510.4 160.1,490.9C164.9,457 163.9,440.5 156.5,432C152.6,427.5 146.8,425.4 138.7,425.4C125.8,425.4 115.2,436.1 102.9,448.5C93.2,458.2 82.2,469.3 69,475.5C46.9,485.9 14.2,484.6 0.1,483.5L0.1,486.5C14.6,487.7 47.4,488.9 70.3,478.2C84,471.8 95.2,460.5 105.1,450.6C116.9,438.7 127.2,428.4 138.8,428.4C146.1,428.4 151,430.2 154.3,434C160.9,441.6 161.8,458 157.2,490.5C154.4,510.3 156.3,529.1 158,545.6C160.1,566.4 161.9,583.3 154.1,595.3L157.6,595.3C164.7,582.4 162.9,565 160.9,545.3Z" style="fill:rgb(1,0,1);fill-opacity:0.16;fill-rule:nonzero;"/>
            <path d="M139,480.9C137.1,470.8 133.7,465 129.2,464.1C116.5,461.6 102.2,476.5 87.1,492.3C77.7,502.1 68.1,512.2 58.6,518.1C40.7,529.2 13,532.2 0,532.9L0,533.9C13.1,533.1 41,530.2 59.2,518.8C68.7,512.8 78.5,502.7 87.9,492.8C102.8,477.2 116.9,462.5 129,464.9C133.1,465.7 136.2,471.3 138,480.9C143.8,512.5 134.2,573.1 112.2,595.1L113.6,595.1C136.5,571.4 144.2,508.9 139,480.9Z" style="fill:rgb(1,0,1);fill-opacity:0.16;fill-rule:nonzero;"/>
            <path d="M119.6,526.7C119.5,519.7 117.6,515 114.1,513.2C104.3,508.1 101.6,511.1 92.7,520.9C87.4,526.7 79.5,535.4 66.2,546.6C40.4,568 12.8,574.9 0,577L0,578C12.8,575.9 40.8,569 66.8,547.3C80.1,536.1 88.1,527.3 93.4,521.5C102.3,511.7 104.5,509.4 113.6,514.1C116.7,515.7 118.5,520.1 118.6,526.7C118.9,545.2 106,579.9 88.5,595.3L90,595.3C107.2,579.3 119.9,545.1 119.6,526.7Z" style="fill:rgb(1,0,1);fill-opacity:0.16;fill-rule:nonzero;"/>
            <path d="M285.5,467.2C298.3,485.9 310.4,503.6 327.4,503.6C348,503.6 368.2,479.8 391.7,452.2C407.5,433.6 423.8,414.5 441.7,401C453.7,392 467.5,387.6 483.9,387.6C501.9,387.6 519.1,392.9 532.9,397.2C541.7,399.9 548.7,402.1 553.4,402.1C555.7,402.1 557.5,401.6 558.7,400.5C560.1,399.3 560.7,397.6 560.7,395.3C560.7,384.2 547.9,373.8 531.7,360.7C519.5,350.8 505.6,339.5 493.9,325.4C479.4,307.8 473.7,289.9 469.5,276.8C465.8,265.1 463.3,257.4 456.8,256.5L456.1,256.5C451.3,256.5 446.9,262.3 440.7,270.4C430.3,284.1 416.1,302.8 392,302.8C389.9,302.8 387.7,302.6 385.4,302.4C384.8,302.3 384.3,302.3 383.7,302.3C375.6,302.3 374.1,310.4 371.9,321.6C368.6,338.6 363.7,364.3 333,384C314.3,396 288.5,401.6 251.8,401.6C239.4,401.6 227.3,401 216.6,400.4C207.7,399.9 200.1,399.5 193.6,399.5C182.6,399.5 176.7,400.7 173.9,403.4C170.1,407.2 170.3,410.4 171.1,412.5C175,422.1 202,428.3 239.8,428.3C258.9,428.4 272.4,448.1 285.5,467.2ZM174,411.4C173.7,410.7 172.9,408.7 176.1,405.5C178.9,402.8 187.5,402.4 193.7,402.4C200.2,402.4 207.8,402.8 216.6,403.2C227.3,403.8 239.4,404.4 251.9,404.4C289.1,404.4 315.5,398.6 334.7,386.3C366.5,365.9 371.6,339.4 374.9,321.9C377.3,309.6 378.6,304.3 385,305.1C387.4,305.4 389.7,305.6 392,305.6C417.6,305.6 432.4,286.2 443.1,272C448.3,265.2 452.7,259.3 456.1,259.3L456.5,259.3C461.2,259.9 463.5,267.3 466.8,277.5C471,290.8 476.8,309.1 491.7,327.1C503.6,341.4 517.6,352.8 529.9,362.8C545.5,375.4 557.8,385.4 557.8,395.1C557.8,396.5 557.5,397.5 556.8,398C556.1,398.6 555,398.8 553.4,398.8C549.1,398.8 542,396.6 533.7,394.1C519.7,389.8 502.3,384.4 483.8,384.4C466.7,384.4 452.3,389 439.8,398.4C421.6,412.1 405.2,431.4 389.3,450C367.3,475.9 346.5,500.3 327.3,500.3C311.9,500.3 300.2,483.2 287.8,465.2C274.3,445.5 260.3,425.1 239.8,425.1C198.6,425.4 176.8,418.2 174,411.4Z" style="fill:rgb(1,0,1);fill-opacity:0.16;fill-rule:nonzero;"/>
            <path d="M50.9,420.3C69.9,416.7 85.1,403.5 98.6,391.8C108.3,383.4 117.5,375.4 126.6,372.4C138.5,368.5 157.6,369.9 177.9,371.3C194.9,372.5 212.4,373.8 228.8,372.4C247.7,370.8 260.2,365.6 260.6,359.2C260.9,354.1 253.8,349.6 241.1,347C224.4,343.5 212.4,336.7 200.9,330.1C192.2,325.1 183.2,320 172.4,316.5C162.8,313.4 147.6,317.1 129.9,321.3C101,328.2 68.3,336.1 50.1,316.6C29.7,294.8 10.1,285.6 0,281.9L0,283C10.1,286.7 29.3,295.8 49.4,317.3C68,337.2 101,329.2 130.1,322.2C146.9,318.2 162.8,314.4 172.1,317.4C182.8,320.9 191.8,326 200.4,330.9C212,337.5 224,344.4 240.9,347.9C252.9,350.4 259.9,354.6 259.6,359.1C259.3,364 249.7,369.6 228.7,371.4C212.4,372.8 194.8,371.5 177.9,370.3C157.6,368.8 138.4,367.5 126.3,371.4C117,374.4 107.8,382.5 98,390.9C84.6,402.5 69.4,415.6 50.7,419.1C28.7,423.2 9.7,418.9 0,415.7L0,416.7C7,419 18.5,421.7 32.4,421.7C38.2,422 44.4,421.5 50.9,420.3Z" style="fill:rgb(1,0,1);fill-opacity:0.16;fill-rule:nonzero;"/>
            <path d="M56.1,389.7C67.9,386.5 77.1,380.4 85.9,374.5C99.9,365.1 114.5,355.3 140,357.2C164.7,359 179.1,356.7 182.9,350.3C184.7,347.3 184.1,343.6 181.3,339.1C176.7,331.8 152.4,334.9 124.4,338.6C108.1,340.7 91.3,342.9 77,343.2C48,343.8 14.3,329.8 0,323.1L0,324.2C14.3,330.8 46.7,344.3 75.3,344.3L77.1,344.3C91.4,344 108.3,341.8 124.6,339.7C151.1,336.3 176.2,333 180.5,339.8C183.1,343.9 183.6,347.3 182.1,349.9C178.5,355.9 164.4,358.1 140.1,356.3C114.2,354.4 99.5,364.2 85.3,373.8C76.5,379.7 67.4,385.8 55.8,388.9C34.2,394.7 11.3,392.2 0,390.3L0,391.3C6.1,392.3 15.4,393.5 26.1,393.5C35.5,393.4 45.9,392.5 56.1,389.7Z" style="fill:rgb(1,0,1);fill-opacity:0.16;fill-rule:nonzero;"/>
            <path d="M59.9,372C60.8,370.9 61,369.6 60.4,368.2C58.5,363.2 47.3,357.8 35.5,356C18.7,353.5 6.8,349.4 -0.1,346.6L-0.1,347.7C6.9,350.6 18.7,354.5 35.3,357C46.6,358.7 57.6,364 59.4,368.6C59.8,369.6 59.7,370.6 59,371.4C57,373.9 47.1,378.7 -0.1,371.6L-0.1,372.6C18,375.3 30.7,376.3 39.7,376.3C53.5,376.3 58.3,374 59.9,372Z" style="fill:rgb(1,0,1);fill-opacity:0.16;fill-rule:nonzero;"/>
            <path d="M330.8,479.9C341.3,479.9 352,472.8 362.4,458.7C368.9,449.9 378.6,440.2 388.9,429.9C411,407.7 433.9,384.7 429.7,367C425.5,349.4 408.3,336.2 395.7,336.2C390.2,336.2 386.3,338.8 384.9,343.6C366.7,401.6 334.3,412.3 308.1,415.2C296.1,416.5 289.7,419.4 287.4,424.3C284.5,430.7 288.2,440.3 300.6,458.7C310.1,472.8 320.3,479.9 330.8,479.9ZM288.3,424.8C290.4,420.2 296.7,417.5 308.2,416.2C325.6,414.3 339,409.2 350.7,400.2C366.2,388.2 377.7,369.8 385.8,343.8C387.5,338.3 392.1,337.1 395.7,337.1C406.5,337.1 424.3,348.5 428.7,367.1C432.8,384.3 410.1,407.1 388.2,429.1C377.9,439.4 368.2,449.2 361.7,458C351.5,471.8 341.1,478.8 330.9,478.8C320.7,478.8 310.8,471.8 301.5,458C289.3,440.4 285.5,430.7 288.3,424.8Z" style="fill:rgb(1,0,1);fill-opacity:0.16;fill-rule:nonzero;"/>
            <path d="M496.3,370.2C508.4,370.2 511,365.8 511,362C511.2,351.7 504.6,348.1 496.3,343.5C488.8,339.3 479.5,334.1 470.9,322.2C466.2,315.7 463.3,310.8 461.1,307.2C457.6,301.4 456,298.7 452.5,298.7C450.3,298.7 447.9,299.8 443.4,301.9C442.4,302.4 441.3,302.8 440.2,303.4C437.1,304.8 434.1,305.9 431.2,306.9C424.1,309.5 417.9,311.7 415.8,317C414.1,321.4 415.3,327.3 419.6,335.6C429.1,354.1 474.1,370.2 496.3,370.2ZM418.6,318.2C420.2,314.1 425.5,312.2 432.2,309.8C435,308.8 438.2,307.6 441.4,306.2C442.6,305.7 443.7,305.2 444.7,304.7C448.5,302.9 451,301.8 452.5,301.8C454.2,301.8 455.3,303.5 458.5,308.9C460.7,312.5 463.7,317.5 468.4,324.1C477.3,336.6 487,341.9 494.7,346.2C502.7,350.7 508,353.6 507.9,362.1C507.8,366.7 500.5,367.3 496.2,367.3C474.8,367.3 431,351.4 422.2,334.4C418.4,326.9 417.2,321.6 418.6,318.2Z" style="fill:rgb(1,0,1);fill-opacity:0.16;fill-rule:nonzero;"/>
            <path d="M34.2,175.2C46.1,188.1 58.3,201.5 76.9,207.7C96.7,214.3 110.9,212.9 125.9,211.5C138.3,210.3 151.2,209.1 167.6,212.8C182,216.1 198.8,228.3 215.1,240.1C234.2,254 252.6,267.2 267.3,267.2C271.5,267.2 275.4,266.1 278.9,263.7C296.5,251.6 286.9,234.7 275.8,215.1C269.8,204.4 263.5,193.4 260.6,181.8C255.8,162.5 257.3,145.1 259,125C260.3,110.3 261.6,95.1 260.6,77.1C258.9,43.9 235.8,12.4 225.7,0.1L224.4,0.1C234.1,11.8 257.8,43.6 259.6,77.1C260.5,95 259.2,110.2 258,124.8C256.3,145 254.8,162.5 259.6,182C262.5,193.8 268.8,204.9 274.9,215.6C285.8,234.8 295.2,251.4 278.3,262.9C275,265.2 271.3,266.2 267.3,266.2C252.9,266.2 234.7,253 215.7,239.3C199.3,227.5 182.4,215.2 167.8,211.9C151.3,208.1 138.3,209.4 125.8,210.6C110.9,212 96.8,213.4 77.2,206.9C58.9,200.8 46.7,187.5 34.9,174.7C24.8,163.7 14.4,152.4 -0.1,145.1L-0.1,146.2C14,153.2 24.3,164.3 34.2,175.2Z" style="fill:rgb(1,0,1);fill-opacity:0.16;fill-rule:nonzero;"/>
            <path d="M70.7,153.6C90,184.1 111.9,184.7 135,185.4C143.6,185.6 152.5,185.9 161.4,187.7C175.9,190.7 190.5,199.7 203.5,207.6C216.5,215.6 228,222.7 237.2,222.7C239.8,222.7 242.2,222.1 244.4,220.8C252.5,216 248.5,207 242.4,193.4C235,176.9 223.9,151.9 227.3,117.7C233.1,58.1 219,27.4 193.7,0L192.3,0C217.8,27.4 232.1,57.9 226.3,117.7C222.9,152.2 234.1,177.3 241.5,194C247.5,207.6 251.2,215.8 243.9,220.1C234.6,225.6 220.4,216.9 204.1,206.9C191.1,198.9 176.3,189.9 161.7,186.8C152.7,184.9 143.8,184.7 135.1,184.4C112.3,183.7 90.7,183.1 71.6,153.1C51.1,120.8 15.2,106.7 0,101.9L0,102.9C15.2,107.7 50.6,121.8 70.7,153.6Z" style="fill:rgb(1,0,1);fill-opacity:0.16;fill-rule:nonzero;"/>
            <path d="M76.7,104.7C81.2,111.5 84.5,117.9 87.4,123.5C95.9,140 101.6,151 126.4,154.8C139.8,156.9 152,161.1 162.8,164.9C174.1,168.8 183.7,172.2 191.8,172.2C195.3,172.2 198.6,171.6 201.6,170.1C212.7,164.6 210.5,150.5 207,127.1C205.2,115.2 203,100.5 201.9,83.2C199.5,43.9 171.9,12.4 159.5,0.1L158,0.1C169.9,11.7 198.4,43.5 200.8,83.2C201.8,100.5 204.1,115.3 205.9,127.2C209.4,150.1 211.5,164 201.1,169.2C191.6,173.9 179,169.6 163.1,164C152.3,160.2 140,156 126.5,153.9C102.2,150.2 96.6,139.4 88.2,123.2C85.3,117.6 82,111.2 77.5,104.3C63.6,83 17.8,74.5 0,72L0,73C17.8,75.5 63,83.9 76.7,104.7Z" style="fill:rgb(1,0,1);fill-opacity:0.16;fill-rule:nonzero;"/>
            <path d="M111.4,118C119.1,131.1 138.3,141.8 156.6,141.8C162.1,141.8 167.5,140.8 172.5,138.7C177.5,136.5 181.1,132.4 183,126.4C188.8,109 180,79 168.2,58.4C155.8,36.8 134.8,11 125.6,0L124.3,0C133.2,10.6 154.8,37 167.3,58.9C178.9,79.3 187.7,108.9 182,126C180.1,131.7 176.7,135.6 172,137.7C150.8,146.9 122,134.1 112.2,117.4C104,103.5 78,64.2 56.2,50.1C41,40.3 13.1,33.7 0,31.1L0,32.1C13.1,34.8 40.6,41.2 55.7,51C77.3,65 103.2,104.1 111.4,118Z" style="fill:rgb(1,0,1);fill-opacity:0.16;fill-rule:nonzero;"/>
            <path d="M119.8,82C132.2,98.3 141.6,110.6 150.3,110.6C151.5,110.6 152.6,110.4 153.7,109.9C155.4,109.2 157.5,107.5 157.7,103C158.4,92.5 149,70.2 134.5,47.4C121.5,26.9 107.1,10.3 93.7,0L88.6,0C102.5,9.7 118,27.1 132,49.1C146,71 155.3,93.1 154.7,102.9C154.6,105.3 153.8,106.7 152.6,107.2C144.9,110.2 134.9,97 122.1,80.2C111.6,66.4 98.5,49.2 82.2,35.2C53.8,10.6 15.7,6.8 0,6.3L0,9.3C15.4,9.8 52.5,13.5 80.3,37.4C96.3,51.3 109.3,68.3 119.8,82Z" style="fill:rgb(1,0,1);fill-opacity:0.16;fill-rule:nonzero;"/>
            <path d="M426.9,99.9C427.2,99.9 427.4,99.8 427.6,99.7C431.1,98.1 428.7,84.2 424.1,59.8C420.4,40.2 415.9,16.3 416.1,0L415.1,0C414.9,16.5 419.4,40.4 423.1,60C426.7,79.3 430.1,97.5 427.2,98.8C426.6,99.1 425.1,98.8 421.4,93.9C403.6,71.1 395.1,16.9 392.9,-0.1L391.9,-0.1C394.2,16.8 402.7,71.5 420.7,94.5C423.4,98.2 425.4,99.9 426.9,99.9Z" style="fill:rgb(1,0,1);fill-opacity:0.16;fill-rule:nonzero;"/>
            <path d="M227.2,532.2C220.5,493.7 226.9,486.6 230,485.4C234.3,483.7 240.8,488.8 247.9,499.4C260.1,517.6 300.6,572.5 344.4,572.5C348.7,572.5 353,572 357.4,570.8C385.2,563.5 406.9,526.5 426,493.8C438.9,471.7 451.1,450.9 463.3,442.7C478.3,432.5 505.2,438.4 536.3,445.2C566.6,451.9 601,459.4 630.8,452.8C656.1,447.2 672.2,431.6 678.6,406.4C684,385.3 681.6,361.7 680,346.1L679.8,343.6C678.3,328.6 691.6,323.1 708.5,316.2C725.7,309.1 745.3,301.1 756,280.6C778.9,236.9 781.1,186.8 762.1,142.9C750.7,116.7 749.4,97.9 757.9,83.5C768.8,65 796.3,53.5 841.8,48.4L841.8,47.4C796,52.6 768.2,64.3 757.1,83C748.4,97.7 749.7,116.9 761.2,143.3C780.1,186.9 777.9,236.7 755.1,280.1C744.5,300.3 725.2,308.2 708.1,315.2C691.5,322 677.2,327.9 678.8,343.6L679,346.1C680.6,361.6 682.9,385.1 677.6,406C671.3,430.8 655.5,446.2 630.5,451.7C600.9,458.2 566.6,450.7 536.4,444.1C505.1,437.2 478,431.3 462.6,441.7C450.3,450.1 438,471 425,493.1C406,525.6 384.4,562.4 357,569.6C309,582.2 261.8,518.5 248.5,498.6C241,487.4 234.2,482.3 229.4,484.3C222.3,487.1 221.1,504.2 226,532.2C232.3,568.4 232.3,587.1 231.7,595.1L232.7,595.1C233.6,587.2 233.6,568.6 227.2,532.2Z" style="fill:rgb(1,0,1);fill-opacity:0.16;fill-rule:nonzero;"/>
            <path d="M650.5,38.8C664.8,46.3 675.3,54 683.7,60.2C695.3,68.8 703.6,74.9 713.7,74.9C717.5,74.9 721.6,74 726.2,72C733.1,69 739,64.4 745.9,58.9C763.7,44.8 785.7,27.3 841.8,26.6L841.8,25.6C785.3,26.4 762.3,44.6 745.3,58.1C738.5,63.5 732.7,68.1 725.8,71C709.6,77.9 700,70.9 684.2,59.3C675.7,53.1 665.2,45.3 650.8,37.8C622.6,23 615.3,7.7 613.5,0L612.4,0C614,7.8 621.2,23.4 650.5,38.8Z" style="fill:rgb(1,0,1);fill-opacity:0.16;fill-rule:nonzero;"/>
            <path d="M677.7,30.5C692.4,37.9 704.7,42.5 716.2,42.5C726.4,42.5 736,38.9 746.2,30.3C755.6,22.4 774,18.5 791.9,14.7C809.6,11 826.5,7.4 834.8,0L829.8,0C821.2,5.5 806.1,8.7 791.3,11.8C773.1,15.7 754.3,19.7 744.3,28C723.8,45.2 706.3,41.4 679,27.8C660,18.4 657.3,6.4 657.4,0L654.5,0C654.5,7.3 657.6,20.5 677.7,30.5Z" style="fill:rgb(1,0,1);fill-opacity:0.16;fill-rule:nonzero;"/>
            <path d="M715.7,24.6C732.6,24.6 747.2,8.3 753.6,0L752.3,0C745.8,8.4 731.8,23.6 715.7,23.6C699.6,23.6 686.9,8.3 681.1,0L679.9,0C685.6,8.4 698.8,24.6 715.7,24.6Z" style="fill:rgb(1,0,1);fill-opacity:0.16;fill-rule:nonzero;"/>
            <path d="M270.1,551.3C260.8,541.8 254.6,535.5 250.5,535.9C249.5,536 248.6,536.5 247.9,537.5C241.4,546.7 252.9,581.8 257.7,595.3L258.8,595.3C254.2,582.2 242.6,546.9 248.8,538.1C249.3,537.4 249.9,537 250.7,536.9C254.3,536.6 261,543.4 269.5,552C282.7,565.4 301.5,584.5 325.5,595.3L328,595.3C303,584.7 283.6,565.1 270.1,551.3Z" style="fill:rgb(1,0,1);fill-opacity:0.16;fill-rule:nonzero;"/>
            <path d="M744.5,508.7C712.6,480.7 665.8,484.7 631.6,487.7C628.4,488 625.2,488.2 622.2,488.5C594.5,490.6 568.5,481.2 545.6,472.9C524.9,465.4 507.1,458.9 492.8,462.6C466,469.5 452.5,498.5 438.2,529.3C436.4,533.2 434.5,537.3 432.6,541.2C420.2,567.1 398.7,587.2 389.2,595.3L393.8,595.3C404.4,585.9 423.7,566.7 435.3,542.5C437.2,538.5 439.1,534.4 440.9,530.5C454.9,500.4 468.2,472.1 493.6,465.5C507,462 524.5,468.4 544.6,475.7C567.8,484.1 594.1,493.7 622.5,491.5C625.5,491.3 628.6,491 631.9,490.7C665.5,487.8 711.6,483.9 742.6,511C762.3,528.3 773.7,556.6 776.3,595.3L779.3,595.3C776.6,555.7 764.9,526.6 744.5,508.7Z" style="fill:rgb(1,0,1);fill-opacity:0.16;fill-rule:nonzero;"/>
            <path d="M641.8,519.5C631.9,519.9 621.8,520.3 612.4,520C586.1,519.3 565,510 546.4,501.9C537.1,497.8 528.3,494 519.9,491.6C512.5,489.5 505.5,490.3 499,494C483.1,503 473.8,527.2 468.8,545.8C462.5,569.2 444.1,587.2 434.5,595.3L436,595.3C445.9,586.8 463.5,569 469.7,546C474.7,527.5 483.9,503.6 499.4,494.8C505.6,491.3 512.4,490.5 519.5,492.5C527.9,494.9 536.7,498.7 545.9,502.8C564.6,511 585.8,520.4 612.3,521C621.7,521.2 631.9,520.9 641.8,520.5C673.7,519.3 706.8,518.1 723.7,536.8C741,555.9 744.1,584 744.6,595.4L745.6,595.4C745.1,583.9 741.9,555.5 724.4,536.2C707.3,517 674,518.2 641.8,519.5Z" style="fill:rgb(1,0,1);fill-opacity:0.16;fill-rule:nonzero;"/>
            <path d="M686.8,544.2C673.9,541.4 657.9,542 641.1,542.5C616.7,543.4 589,544.3 565,535C562.1,533.9 559.4,532.8 556.7,531.7C533.9,522.7 518.9,516.7 507.8,522.2C501.1,525.5 496.4,532.8 492.9,545.3C485.6,571 476.1,588 471.4,595.4L475,595.4C480,587.2 488.8,570.7 495.8,546.2C499.1,534.6 503.3,527.9 509.2,525C519.1,520.1 533.7,525.9 555.7,534.6C558.4,535.7 561.1,536.8 564,537.9C588.5,547.5 616.6,546.5 641.3,545.6C658,545 673.7,544.5 686.3,547.2C710.3,552.4 713.9,583.1 714.3,595.4L717.3,595.4C716.7,582.5 712.8,549.8 686.8,544.2Z" style="fill:rgb(1,0,1);fill-opacity:0.16;fill-rule:nonzero;"/>
            <path d="M622.9,568.1C617.6,568.1 612.1,568 606.2,567.9C575,567.4 556.7,558.5 544.6,552.6C534.9,547.8 529,545 523.4,549.7C513.6,557.8 510.3,584.2 509.4,595.4L510.4,595.4C511.4,584.3 514.8,558.2 524.1,550.5C529.2,546.2 534.9,549 544.2,553.6C556.4,559.5 574.8,568.5 606.2,569.1C612.1,569.2 617.6,569.2 622.9,569.3C652.3,569.5 671.7,569.7 680.4,579C684,582.8 685.8,588.1 686,595.5L687,595.5C686.8,587.9 684.9,582.3 681.1,578.3C672.1,568.4 652.6,568.3 622.9,568.1Z" style="fill:rgb(1,0,1);fill-opacity:0.16;fill-rule:nonzero;"/>
            <path d="M659.5,590.2C655.8,587.2 649.8,587.9 639.7,589.1C633.2,589.8 625.1,590.7 615.1,590.9C590.8,591.4 576.2,587.9 564.5,585C559.3,583.7 554.9,582.7 550.3,582C546.3,581.5 543.3,582.3 541.3,584.6C538.7,587.4 538.2,591.8 538.3,595.3L539.3,595.3C539.2,592 539.6,587.8 542,585.3C543.8,583.3 546.6,582.6 550.2,583C554.7,583.6 559.2,584.7 564.3,585.9C576.1,588.8 590.8,592.3 615.2,591.8C625.3,591.6 633.4,590.7 639.9,589.9C649.7,588.8 655.6,588.1 658.9,590.8C660.1,591.8 661,593.2 661.6,595.1L662.7,595.1C661.9,592.9 660.9,591.3 659.5,590.2Z" style="fill:rgb(1,0,1);fill-opacity:0.16;fill-rule:nonzero;"/>
            <path d="M717.1,477.2C699.8,474.2 684.9,471.6 680.8,462.8C676.1,452.5 682.5,441.9 689.9,429.5C696.4,418.8 703.7,406.6 704.2,392.9C704.5,385.8 703.9,379.2 703.3,372.9C701.5,353.6 700.3,339.6 725.3,329.7L726.9,329.1C759.2,316.4 784.7,306.4 794.8,241.9C800.4,205.7 794.1,178.1 789.1,155.9C784.9,137.5 781.6,123 785.6,109.3C792.6,85.7 826.8,83.4 841.9,83.5L841.9,82.5C826.6,82.4 791.8,84.8 784.7,109C780.6,123 784.1,138.4 788.1,156.2C793.1,178.3 799.4,205.9 793.8,241.9C783.8,305.7 759.8,315.2 726.6,328.3L725,328.9C699.3,339 700.7,354.1 702.4,373.1C703,379.4 703.6,385.9 703.3,393C702.8,406.5 695.6,418.5 689.1,429.2C681.5,441.8 674.9,452.6 679.9,463.4C684.2,472.7 699.4,475.4 716.9,478.4C738.2,482.1 762.3,486.3 777.6,502.7C801.1,527.9 807.9,579.1 809.6,595.5L810.6,595.5C809,579.2 802.1,527.5 778.4,502C762.8,485.2 737.5,480.8 717.1,477.2Z" style="fill:rgb(1,0,1);fill-opacity:0.16;fill-rule:nonzero;"/>
            <path d="M817.6,126.5C811.6,131.4 808.3,138.7 808.1,148.1C807.8,159.6 810.9,172.5 814.6,187.4C821.5,215.2 830,249.9 815.3,286.7C802.8,318.2 785.8,326.7 770.8,334.2C759.2,340 749.2,345 743.9,359.1C738.8,372.7 737.3,381.7 736,389.6C734.3,400.1 733.1,407.7 723.9,420.5C715.9,431.7 713.4,440.7 716.3,448.1C719.5,456.3 729.3,462.1 746.2,465.6L747.8,465.9C776.1,471.8 821.6,481.3 841.9,555.7L841.9,545.5C833.5,520.1 821.2,500.5 805.1,487.1C785.4,470.7 764,466.3 748.4,463L746.8,462.7C731.2,459.4 721.9,454.2 719.1,447C716.6,440.7 719.1,432.4 726.4,422.2C736,408.9 737.3,400.6 739,390C740.3,382.2 741.7,373.4 746.7,360.1C751.6,347.1 761.1,342.3 772.2,336.8C786.9,329.4 805.2,320.3 818.2,287.7C833.2,250 824.6,214.8 817.6,186.5C814,171.8 810.9,159.1 811.2,148C811.5,139.4 814.3,132.9 819.6,128.6C826.3,123.2 835.7,122.3 842,122.4L842,119.4C835.1,119.5 825,120.5 817.6,126.5Z" style="fill:rgb(1,0,1);fill-opacity:0.16;fill-rule:nonzero;"/>
            <path d="M794.6,350.6C778.1,369.2 768,391.7 763.4,403.5C757.7,418.2 756.6,426.1 759.5,431.6C763.6,439.4 775.4,442.2 797,447.5L802.2,448.8C823.9,454.1 835.6,471.2 841.8,486.2L841.8,483.7C835.3,469 823.5,452.9 802.4,447.8L797.2,446.5C775.9,441.3 764.2,438.5 760.3,431.1C757.5,425.8 758.6,418.2 764.2,403.8C771,386.3 796,330.9 841.7,322.5L841.7,321.5C824.8,324.6 808.9,334.3 794.6,350.6Z" style="fill:rgb(1,0,1);fill-opacity:0.16;fill-rule:nonzero;"/>
            <path d="M799.9,385.7C792.5,400.1 790.6,409.7 793.7,416.1C797.1,423 806.2,425.6 815.5,427.4C827.2,429.6 836.2,437.9 841.8,444.7L841.8,443.2C836,436.4 827.2,428.6 815.6,426.4C803.2,424 797.1,420.9 794.5,415.7C791.5,409.6 793.5,400.2 800.7,386.2C811.3,365.4 831.1,355.9 841.8,352.1L841.8,351C831.1,354.7 810.8,364.4 799.9,385.7Z" style="fill:rgb(1,0,1);fill-opacity:0.16;fill-rule:nonzero;"/>
            <path d="M820.5,401.8C819.6,410.9 833.2,417 841.9,419.9L841.9,418.8C833.4,415.9 820.7,410.1 821.5,401.9C822.3,393.7 833.9,382.3 841.9,375.3L841.9,374C833.8,380.9 821.3,393 820.5,401.8Z" style="fill:rgb(1,0,1);fill-opacity:0.16;fill-rule:nonzero;"/>
        </g>
    </g>
</svg>
