<?xml version="1.0" encoding="UTF-8" standalone="no"?>
<!DOCTYPE svg PUBLIC "-//W3C//DTD SVG 1.1//EN" "http://www.w3.org/Graphics/SVG/1.1/DTD/svg11.dtd">
<svg width="100%" height="100%" viewBox="0 0 2048 1536" version="1.1" xmlns="http://www.w3.org/2000/svg" xmlns:xlink="http://www.w3.org/1999/xlink" xml:space="preserve" xmlns:serif="http://www.serif.com/" style="fill-rule:evenodd;clip-rule:evenodd;stroke-linecap:round;stroke-linejoin:round;stroke-miterlimit:1.5;">
    <g transform="matrix(1,0,0,1,310.085,240.056)">
        <text x="211.547px" y="615.137px" style="font-family:'Futura-Bold', 'Futura', sans-serif;font-weight:700;font-size:495.798px;">W</text>
    </g>
    <g transform="matrix(1,0,0,1,801.517,240.056)">
        <text x="211.547px" y="615.137px" style="font-family:'Futura-Bold', 'Futura', sans-serif;font-weight:700;font-size:495.798px;">D</text>
    </g>
    <g transform="matrix(1,0,0,1,15.2266,73.2686)">
        <clipPath id="_clip1">
            <rect x="506.405" y="408.092" width="858.324" height="373.832"/>
        </clipPath>
        <g clip-path="url(#_clip1)">
            <g transform="matrix(1,0,0,0.71948,-16.2688,115.045)">
                <path d="M587.798,522.178C577.097,521.123 561.985,549.192 562.733,562.579C563.482,575.967 581.587,601.447 592.288,602.501C602.989,603.556 627.688,582.294 626.94,568.907C626.191,555.52 598.499,523.232 587.798,522.178Z" style="fill:none;stroke:white;stroke-width:6.89px;"/>
            </g>
            <g transform="matrix(1.92659,0,0,1.33884,-560.219,-229.868)">
                <path d="M587.798,522.178C577.097,521.123 561.985,549.192 562.733,562.579C563.482,575.967 581.587,601.447 592.288,602.501C602.989,603.556 627.688,582.294 626.94,568.907C626.191,555.52 598.499,523.232 587.798,522.178Z" style="fill:none;stroke:white;stroke-width:3.62px;"/>
            </g>
            <g transform="matrix(3.45185,0,0,2.34943,-1461.93,-797.58)">
                <path d="M587.798,522.178C577.097,521.123 561.985,549.192 562.733,562.579C563.482,575.967 581.587,601.447 592.288,602.501C602.989,603.556 627.688,582.294 626.94,568.907C626.191,555.52 598.499,523.232 587.798,522.178Z" style="fill:none;stroke:white;stroke-width:2.03px;"/>
            </g>
            <g transform="matrix(5.98026,0,0,3.88137,-2962.53,-1667.73)">
                <path d="M587.798,522.178C577.097,521.123 561.985,549.192 562.733,562.579C563.482,575.967 581.587,601.447 592.288,602.501C602.989,603.556 627.688,582.294 626.94,568.907C626.191,555.52 598.499,523.232 587.798,522.178Z" style="fill:none;stroke:white;stroke-width:1.19px;"/>
            </g>
            <g transform="matrix(9.13972,0,0,6.41218,-4875.23,-3105.25)">
                <path d="M587.798,522.178C577.097,521.123 561.985,549.192 562.733,562.579C563.482,575.967 581.587,601.447 592.288,602.501C602.989,603.556 627.688,582.294 626.94,568.907C626.191,555.52 598.499,523.232 587.798,522.178Z" style="fill:none;stroke:white;stroke-width:0.76px;"/>
            </g>
            <g transform="matrix(14.0467,0,0,10.5932,-7870.03,-5480.1)">
                <path d="M587.798,522.178C577.097,521.123 561.985,549.192 562.733,562.579C563.482,575.967 581.587,601.447 592.288,602.501C602.989,603.556 627.688,582.294 626.94,568.907C626.191,555.52 598.499,523.232 587.798,522.178Z" style="fill:none;stroke:white;stroke-width:0.48px;"/>
            </g>
            <g transform="matrix(15.8357,0,0,10.5932,-8876.73,-5480.1)">
                <path d="M587.798,522.178C577.097,521.123 561.985,549.192 562.733,562.579C563.482,575.967 581.587,601.447 592.288,602.501C602.989,603.556 627.688,582.294 626.94,568.907C626.191,555.52 598.499,523.232 587.798,522.178Z" style="fill:none;stroke:white;stroke-width:0.45px;"/>
            </g>
            <g transform="matrix(17.181,0,0,10.5932,-9633.72,-5480.1)">
                <path d="M587.798,522.178C577.097,521.123 561.985,549.192 562.733,562.579C563.482,575.967 581.587,601.447 592.288,602.501C602.989,603.556 627.688,582.294 626.94,568.907C626.191,555.52 598.499,523.232 587.798,522.178Z" style="fill:none;stroke:white;stroke-width:0.42px;"/>
            </g>
            <g transform="matrix(18.9671,0,0,10.5932,-10638.8,-5480.1)">
                <path d="M587.798,522.178C577.097,521.123 561.985,549.192 562.733,562.579C563.482,575.967 581.587,601.447 592.288,602.501C602.989,603.556 627.688,582.294 626.94,568.907C626.191,555.52 598.499,523.232 587.798,522.178Z" style="fill:none;stroke:white;stroke-width:0.39px;"/>
            </g>
            <g transform="matrix(20.7248,0,0,10.6822,-11627.9,-5526.55)">
                <path d="M587.798,522.178C577.097,521.123 561.985,549.192 562.733,562.579C563.482,575.967 581.587,601.447 592.288,602.501C597.774,603.042 606.939,597.717 614.468,590.595C621.625,583.825 627.304,575.431 626.94,568.907C626.191,555.52 598.499,523.232 587.798,522.178Z" style="fill:none;stroke:white;stroke-width:0.36px;"/>
            </g>
            <g transform="matrix(22.6446,0,0,10.6822,-12708.2,-5526.55)">
                <path d="M587.798,522.178C577.097,521.123 561.985,549.192 562.733,562.579C563.482,575.967 581.587,601.447 592.288,602.501C597.774,603.042 606.939,597.717 614.468,590.595C621.625,583.825 627.304,575.431 626.94,568.907C626.191,555.52 598.499,523.232 587.798,522.178Z" style="fill:none;stroke:white;stroke-width:0.34px;"/>
            </g>
            <g transform="matrix(31.0975,0,0,17.5004,-17869.4,-9403.45)">
                <path d="M587.798,522.178C577.097,521.123 561.985,549.192 562.733,562.579C563.482,575.967 581.587,601.447 592.288,602.501C602.989,603.556 627.688,582.294 626.94,568.907C626.191,555.52 598.499,523.232 587.798,522.178Z" style="fill:none;stroke:white;stroke-width:0.24px;"/>
            </g>
        </g>
    </g>
</svg>
